<svg xmlns="http://www.w3.org/2000/svg" width="96" height="103" fill="none" viewBox="0 0 96 103"><rect width="96" height="103" fill="#0C5BC6" rx="20"/><mask id="mask0_214_17885" style="mask-type:alpha" width="96" height="103" x="0" y="0" maskUnits="userSpaceOnUse"><rect width="96" height="103" fill="#5236FF" rx="20"/></mask><g mask="url(#mask0_214_17885)"><path fill="#22137B" d="M77.1096 69.6848C77.1096 76.4862 65.4678 81.9999 51.1068 81.9999C36.7459 81.9999 25.104 76.4862 25.104 69.6848C25.104 62.8833 36.7459 57.3697 51.1068 57.3697C65.4678 57.3697 77.1096 62.8833 77.1096 69.6848Z"/><path fill="#22137B" d="M77.1096 68.9604C77.1096 75.7618 65.4678 81.2755 51.1068 81.2755C36.7459 81.2755 25.104 75.7618 25.104 68.9604C25.104 62.1589 36.7459 56.6453 51.1068 56.6453C65.4678 56.6453 77.1096 62.1589 77.1096 68.9604Z"/><path fill="#22137B" d="M77.1096 68.236C77.1096 75.0374 65.4678 80.5511 51.1068 80.5511C36.7459 80.5511 25.104 75.0374 25.104 68.236C25.104 61.4345 36.7459 55.9208 51.1068 55.9208C65.4678 55.9208 77.1096 61.4345 77.1096 68.236Z"/><path fill="#22137B" d="M77.1096 67.5115C77.1096 74.313 65.4678 79.8267 51.1068 79.8267C36.7459 79.8267 25.104 74.313 25.104 67.5115C25.104 60.7101 36.7459 55.1964 51.1068 55.1964C65.4678 55.1964 77.1096 60.7101 77.1096 67.5115Z"/><path fill="#22137B" d="M77.1096 66.7871C77.1096 73.5886 65.4678 79.1022 51.1068 79.1022C36.7459 79.1022 25.104 73.5886 25.104 66.7871C25.104 59.9857 36.7459 54.472 51.1068 54.472C65.4678 54.472 77.1096 59.9857 77.1096 66.7871Z"/><path fill="#22137B" d="M77.1096 66.0627C77.1096 72.8642 65.4678 78.3778 51.1068 78.3778C36.7459 78.3778 25.104 72.8642 25.104 66.0627C25.104 59.2612 36.7459 53.7476 51.1068 53.7476C65.4678 53.7476 77.1096 59.2612 77.1096 66.0627Z"/><path fill="#22137B" d="M77.1096 65.3383C77.1096 72.1397 65.4678 77.6534 51.1068 77.6534C36.7459 77.6534 25.104 72.1397 25.104 65.3383C25.104 58.5368 36.7459 53.0232 51.1068 53.0232C65.4678 53.0232 77.1096 58.5368 77.1096 65.3383Z"/><path fill="#22137B" d="M77.1096 64.6139C77.1096 71.4153 65.4678 76.929 51.1068 76.929C36.7459 76.929 25.104 71.4153 25.104 64.6139C25.104 57.8124 36.7459 52.2987 51.1068 52.2987C65.4678 52.2987 77.1096 57.8124 77.1096 64.6139Z"/><path fill="#22137B" d="M77.1096 63.8894C77.1096 70.6909 65.4678 76.2046 51.1068 76.2046C36.7459 76.2046 25.104 70.6909 25.104 63.8894C25.104 57.088 36.7459 51.5743 51.1068 51.5743C65.4678 51.5743 77.1096 57.088 77.1096 63.8894Z"/><path fill="#22137B" d="M77.1096 63.165C77.1096 69.9665 65.4678 75.4801 51.1068 75.4801C36.7459 75.4801 25.104 69.9665 25.104 63.165C25.104 56.3636 36.7459 50.8499 51.1068 50.8499C65.4678 50.8499 77.1096 56.3636 77.1096 63.165Z"/><path fill="#22137B" d="M77.1096 62.4406C77.1096 69.2421 65.4678 74.7557 51.1068 74.7557C36.7459 74.7557 25.104 69.2421 25.104 62.4406C25.104 55.6392 36.7459 50.1255 51.1068 50.1255C65.4678 50.1255 77.1096 55.6392 77.1096 62.4406Z"/><path fill="#4192FF" d="M77.1096 67.6848C77.1096 74.4862 65.4678 79.9999 51.1068 79.9999C36.7459 79.9999 25.104 74.4862 25.104 67.6848C25.104 60.8833 36.7459 55.3697 51.1068 55.3697C65.4678 55.3697 77.1096 60.8833 77.1096 67.6848Z"/><path fill="#4192FF" d="M77.1096 66.9604C77.1096 73.7618 65.4678 79.2755 51.1068 79.2755C36.7459 79.2755 25.104 73.7618 25.104 66.9604C25.104 60.1589 36.7459 54.6453 51.1068 54.6453C65.4678 54.6453 77.1096 60.1589 77.1096 66.9604Z"/><path fill="#4192FF" d="M77.1096 66.236C77.1096 73.0374 65.4678 78.5511 51.1068 78.5511C36.7459 78.5511 25.104 73.0374 25.104 66.236C25.104 59.4345 36.7459 53.9208 51.1068 53.9208C65.4678 53.9208 77.1096 59.4345 77.1096 66.236Z"/><path fill="#4192FF" d="M77.1096 65.5115C77.1096 72.313 65.4678 77.8267 51.1068 77.8267C36.7459 77.8267 25.104 72.313 25.104 65.5115C25.104 58.7101 36.7459 53.1964 51.1068 53.1964C65.4678 53.1964 77.1096 58.7101 77.1096 65.5115Z"/><path fill="#4192FF" d="M77.1096 64.7871C77.1096 71.5886 65.4678 77.1022 51.1068 77.1022C36.7459 77.1022 25.104 71.5886 25.104 64.7871C25.104 57.9857 36.7459 52.472 51.1068 52.472C65.4678 52.472 77.1096 57.9857 77.1096 64.7871Z"/><path fill="#4192FF" d="M77.1096 64.0627C77.1096 70.8642 65.4678 76.3778 51.1068 76.3778C36.7459 76.3778 25.104 70.8642 25.104 64.0627C25.104 57.2612 36.7459 51.7476 51.1068 51.7476C65.4678 51.7476 77.1096 57.2612 77.1096 64.0627Z"/><path fill="#4192FF" d="M77.1096 63.3383C77.1096 70.1397 65.4678 75.6534 51.1068 75.6534C36.7459 75.6534 25.104 70.1397 25.104 63.3383C25.104 56.5368 36.7459 51.0232 51.1068 51.0232C65.4678 51.0232 77.1096 56.5368 77.1096 63.3383Z"/><path fill="#4192FF" d="M77.1096 62.6139C77.1096 69.4153 65.4678 74.929 51.1068 74.929C36.7459 74.929 25.104 69.4153 25.104 62.6139C25.104 55.8124 36.7459 50.2987 51.1068 50.2987C65.4678 50.2987 77.1096 55.8124 77.1096 62.6139Z"/><path fill="#4192FF" d="M77.1096 61.8894C77.1096 68.6909 65.4678 74.2046 51.1068 74.2046C36.7459 74.2046 25.104 68.6909 25.104 61.8894C25.104 55.088 36.7459 49.5743 51.1068 49.5743C65.4678 49.5743 77.1096 55.088 77.1096 61.8894Z"/><path fill="#4192FF" d="M77.1096 61.165C77.1096 67.9665 65.4678 73.4801 51.1068 73.4801C36.7459 73.4801 25.104 67.9665 25.104 61.165C25.104 54.3636 36.7459 48.8499 51.1068 48.8499C65.4678 48.8499 77.1096 54.3636 77.1096 61.165Z"/><path fill="#4192FF" d="M77.1096 60.4406C77.1096 67.2421 65.4678 72.7557 51.1068 72.7557C36.7459 72.7557 25.104 67.2421 25.104 60.4406C25.104 53.6392 36.7459 48.1255 51.1068 48.1255C65.4678 48.1255 77.1096 53.6392 77.1096 60.4406Z"/><ellipse cx="51.107" cy="59.869" fill="#fff" rx="26.003" ry="11.743"/><path fill="#0C5BC6" d="M56.9784 61.99C56.9784 62.6131 56.5806 63.14 55.7849 63.5708C55.0035 63.9939 53.945 64.267 52.6094 64.3901V65.0478C52.6094 65.2555 52.4886 65.4209 52.2471 65.544C52.0197 65.6748 51.7142 65.7402 51.3306 65.7402C50.9612 65.7402 50.6557 65.6748 50.4142 65.544C50.1726 65.4209 50.0519 65.2555 50.0519 65.0478V64.4247C49.2704 64.3863 48.5103 64.2978 47.7714 64.1593C47.0468 64.0209 46.4074 63.8439 45.8533 63.6285C45.626 63.5516 45.4626 63.467 45.3631 63.3747C45.2779 63.2747 45.2352 63.1516 45.2352 63.0054C45.2352 62.8131 45.3418 62.6439 45.5549 62.4977C45.7823 62.3515 46.038 62.2785 46.3222 62.2785C46.5921 62.2785 46.926 62.34 47.3239 62.4631C47.9774 62.6708 48.5955 62.8246 49.178 62.9246C49.7748 63.017 50.3929 63.0631 51.0322 63.0631C51.8847 63.0631 52.5383 62.9785 52.993 62.8093C53.4477 62.6323 53.675 62.3862 53.675 62.0708C53.675 61.8784 53.54 61.7207 53.2701 61.5977C53.0143 61.4746 52.6946 61.3784 52.311 61.3092C51.9274 61.2399 51.3732 61.1515 50.6486 61.0438C49.5972 60.8976 48.7305 60.7515 48.0485 60.6053C47.3665 60.4591 46.7768 60.2284 46.2795 59.913C45.7965 59.5976 45.5549 59.1745 45.5549 58.6437C45.5549 58.0205 45.9599 57.4859 46.7697 57.0397C47.5938 56.5936 48.6665 56.3089 49.9879 56.1858V55.5281C49.9879 55.3204 50.1087 55.155 50.3502 55.0319C50.5918 54.9012 50.8973 54.8358 51.2667 54.8358C51.6503 54.8358 51.9558 54.9012 52.1831 55.0319C52.4247 55.155 52.5454 55.3204 52.5454 55.5281V56.1628C53.8242 56.2551 55.0248 56.5166 56.1473 56.9474C56.3604 57.0243 56.5096 57.1128 56.5948 57.2128C56.6943 57.3128 56.744 57.4321 56.744 57.5705C56.744 57.7628 56.6303 57.9321 56.403 58.0782C56.1899 58.2244 55.9412 58.2975 55.6571 58.2975C55.5008 58.2975 55.3516 58.2859 55.2095 58.2629C55.0816 58.2398 54.8969 58.1898 54.6554 58.1129C54.0728 57.9129 53.5471 57.7628 53.0782 57.6628C52.6236 57.5628 52.0623 57.5128 51.3946 57.5128C50.6273 57.5128 50.0092 57.6051 49.5404 57.7898C49.0857 57.9744 48.8584 58.2206 48.8584 58.5283C48.8584 58.7437 48.9933 58.9206 49.2633 59.0591C49.5333 59.1898 49.8743 59.2937 50.2863 59.3706C50.6983 59.4475 51.2738 59.536 52.0126 59.636C53.0498 59.7745 53.8952 59.9168 54.5488 60.063C55.2166 60.2014 55.7849 60.4284 56.2538 60.7438C56.7369 61.0515 56.9784 61.4669 56.9784 61.99Z"/><path fill="#4192FF" d="M77.1096 54.2639C77.1096 61.0653 65.4678 66.579 51.1068 66.579C36.7459 66.579 25.104 61.0653 25.104 54.2639C25.104 47.4624 36.7459 41.9488 51.1068 41.9488C65.4678 41.9488 77.1096 47.4624 77.1096 54.2639Z"/><path fill="#4192FF" d="M77.1096 53.5395C77.1096 60.3409 65.4678 65.8546 51.1068 65.8546C36.7459 65.8546 25.104 60.3409 25.104 53.5395C25.104 46.738 36.7459 41.2244 51.1068 41.2244C65.4678 41.2244 77.1096 46.738 77.1096 53.5395Z"/><path fill="#4192FF" d="M77.1096 52.8151C77.1096 59.6165 65.4678 65.1302 51.1068 65.1302C36.7459 65.1302 25.104 59.6165 25.104 52.8151C25.104 46.0136 36.7459 40.4999 51.1068 40.4999C65.4678 40.4999 77.1096 46.0136 77.1096 52.8151Z"/><path fill="#4192FF" d="M77.1096 52.0906C77.1096 58.8921 65.4678 64.4058 51.1068 64.4058C36.7459 64.4058 25.104 58.8921 25.104 52.0906C25.104 45.2892 36.7459 39.7755 51.1068 39.7755C65.4678 39.7755 77.1096 45.2892 77.1096 52.0906Z"/><path fill="#4192FF" d="M77.1096 51.3662C77.1096 58.1677 65.4678 63.6813 51.1068 63.6813C36.7459 63.6813 25.104 58.1677 25.104 51.3662C25.104 44.5648 36.7459 39.0511 51.1068 39.0511C65.4678 39.0511 77.1096 44.5648 77.1096 51.3662Z"/><path fill="#4192FF" d="M77.1096 50.6418C77.1096 57.4433 65.4678 62.9569 51.1068 62.9569C36.7459 62.9569 25.104 57.4433 25.104 50.6418C25.104 43.8404 36.7459 38.3267 51.1068 38.3267C65.4678 38.3267 77.1096 43.8404 77.1096 50.6418Z"/><path fill="#4192FF" d="M77.1096 49.9174C77.1096 56.7188 65.4678 62.2325 51.1068 62.2325C36.7459 62.2325 25.104 56.7188 25.104 49.9174C25.104 43.1159 36.7459 37.6023 51.1068 37.6023C65.4678 37.6023 77.1096 43.1159 77.1096 49.9174Z"/><path fill="#4192FF" d="M77.1096 49.193C77.1096 55.9944 65.4678 61.5081 51.1068 61.5081C36.7459 61.5081 25.104 55.9944 25.104 49.193C25.104 42.3915 36.7459 36.8778 51.1068 36.8778C65.4678 36.8778 77.1096 42.3915 77.1096 49.193Z"/><path fill="#4192FF" d="M77.1096 48.4685C77.1096 55.27 65.4678 60.7837 51.1068 60.7837C36.7459 60.7837 25.104 55.27 25.104 48.4685C25.104 41.6671 36.7459 36.1534 51.1068 36.1534C65.4678 36.1534 77.1096 41.6671 77.1096 48.4685Z"/><path fill="#4192FF" d="M77.1096 47.7441C77.1096 54.5456 65.4678 60.0592 51.1068 60.0592C36.7459 60.0592 25.104 54.5456 25.104 47.7441C25.104 40.9427 36.7459 35.429 51.1068 35.429C65.4678 35.429 77.1096 40.9427 77.1096 47.7441Z"/><path fill="#4192FF" d="M77.1096 47.0197C77.1096 53.8212 65.4678 59.3348 51.1068 59.3348C36.7459 59.3348 25.104 53.8212 25.104 47.0197C25.104 40.2183 36.7459 34.7046 51.1068 34.7046C65.4678 34.7046 77.1096 40.2183 77.1096 47.0197Z"/><ellipse cx="51.107" cy="46.448" fill="#fff" rx="26.003" ry="11.743"/><path fill="#0C5BC6" d="M56.9784 48.5691C56.9784 49.1922 56.5806 49.7191 55.7849 50.1499C55.0035 50.573 53.945 50.8461 52.6094 50.9692V51.6269C52.6094 51.8346 52.4886 52 52.2471 52.1231C52.0197 52.2539 51.7142 52.3193 51.3306 52.3193C50.9612 52.3193 50.6557 52.2539 50.4142 52.1231C50.1726 52 50.0519 51.8346 50.0519 51.6269V51.0038C49.2704 50.9654 48.5103 50.8769 47.7714 50.7384C47.0468 50.6 46.4074 50.423 45.8533 50.2076C45.626 50.1307 45.4626 50.0461 45.3631 49.9538C45.2779 49.8538 45.2352 49.7307 45.2352 49.5845C45.2352 49.3922 45.3418 49.223 45.5549 49.0768C45.7823 48.9306 46.038 48.8576 46.3222 48.8576C46.5921 48.8576 46.926 48.9191 47.3239 49.0422C47.9774 49.2499 48.5955 49.4037 49.178 49.5038C49.7748 49.5961 50.3929 49.6422 51.0322 49.6422C51.8847 49.6422 52.5383 49.5576 52.993 49.3884C53.4477 49.2114 53.675 48.9653 53.675 48.6499C53.675 48.4575 53.54 48.2998 53.2701 48.1768C53.0143 48.0537 52.6946 47.9575 52.311 47.8883C51.9274 47.819 51.3732 47.7306 50.6486 47.6229C49.5972 47.4767 48.7305 47.3306 48.0485 47.1844C47.3665 47.0382 46.7768 46.8075 46.2795 46.4921C45.7965 46.1767 45.5549 45.7536 45.5549 45.2228C45.5549 44.5997 45.9599 44.065 46.7697 43.6188C47.5938 43.1727 48.6665 42.888 49.9879 42.7649V42.1072C49.9879 41.8995 50.1087 41.7341 50.3502 41.611C50.5918 41.4803 50.8973 41.4149 51.2667 41.4149C51.6503 41.4149 51.9558 41.4803 52.1831 41.611C52.4247 41.7341 52.5454 41.8995 52.5454 42.1072V42.7419C53.8242 42.8342 55.0248 43.0957 56.1473 43.5265C56.3604 43.6034 56.5096 43.6919 56.5948 43.7919C56.6943 43.8919 56.744 44.0112 56.744 44.1496C56.744 44.3419 56.6303 44.5112 56.403 44.6573C56.1899 44.8035 55.9412 44.8766 55.6571 44.8766C55.5008 44.8766 55.3516 44.865 55.2095 44.842C55.0816 44.8189 54.8969 44.7689 54.6554 44.692C54.0728 44.492 53.5471 44.3419 53.0782 44.2419C52.6236 44.1419 52.0623 44.0919 51.3946 44.0919C50.6273 44.0919 50.0092 44.1842 49.5404 44.3689C49.0857 44.5535 48.8584 44.7997 48.8584 45.1074C48.8584 45.3228 48.9933 45.4997 49.2633 45.6382C49.5333 45.7689 49.8743 45.8728 50.2863 45.9497C50.6983 46.0266 51.2738 46.1151 52.0126 46.2151C53.0498 46.3536 53.8952 46.4959 54.5488 46.6421C55.2166 46.7805 55.7849 47.0075 56.2538 47.3229C56.7369 47.6306 56.9784 48.046 56.9784 48.5691Z"/><path fill="#4192FF" d="M71.238 38.3269C71.238 45.1283 59.5961 50.642 45.2352 50.642C30.8742 50.642 19.2324 45.1283 19.2324 38.3269C19.2324 31.5254 30.8742 26.0118 45.2352 26.0118C59.5961 26.0118 71.238 31.5254 71.238 38.3269Z"/><path fill="#4192FF" d="M71.238 37.6025C71.238 44.4039 59.5961 49.9176 45.2352 49.9176C30.8742 49.9176 19.2324 44.4039 19.2324 37.6025C19.2324 30.801 30.8742 25.2873 45.2352 25.2873C59.5961 25.2873 71.238 30.801 71.238 37.6025Z"/><path fill="#4192FF" d="M71.238 36.878C71.238 43.6795 59.5961 49.1932 45.2352 49.1932C30.8742 49.1932 19.2324 43.6795 19.2324 36.878C19.2324 30.0766 30.8742 24.5629 45.2352 24.5629C59.5961 24.5629 71.238 30.0766 71.238 36.878Z"/><path fill="#4192FF" d="M71.238 36.1536C71.238 42.9551 59.5961 48.4687 45.2352 48.4687C30.8742 48.4687 19.2324 42.9551 19.2324 36.1536C19.2324 29.3522 30.8742 23.8385 45.2352 23.8385C59.5961 23.8385 71.238 29.3522 71.238 36.1536Z"/><path fill="#4192FF" d="M71.238 35.4292C71.238 42.2307 59.5961 47.7443 45.2352 47.7443C30.8742 47.7443 19.2324 42.2307 19.2324 35.4292C19.2324 28.6278 30.8742 23.1141 45.2352 23.1141C59.5961 23.1141 71.238 28.6278 71.238 35.4292Z"/><path fill="#4192FF" d="M71.238 34.7048C71.238 41.5062 59.5961 47.0199 45.2352 47.0199C30.8742 47.0199 19.2324 41.5062 19.2324 34.7048C19.2324 27.9033 30.8742 22.3897 45.2352 22.3897C59.5961 22.3897 71.238 27.9033 71.238 34.7048Z"/><path fill="#4192FF" d="M71.238 33.9804C71.238 40.7818 59.5961 46.2955 45.2352 46.2955C30.8742 46.2955 19.2324 40.7818 19.2324 33.9804C19.2324 27.1789 30.8742 21.6653 45.2352 21.6653C59.5961 21.6653 71.238 27.1789 71.238 33.9804Z"/><path fill="#4192FF" d="M71.238 33.256C71.238 40.0574 59.5961 45.5711 45.2352 45.5711C30.8742 45.5711 19.2324 40.0574 19.2324 33.256C19.2324 26.4545 30.8742 20.9408 45.2352 20.9408C59.5961 20.9408 71.238 26.4545 71.238 33.256Z"/><path fill="#4192FF" d="M71.238 32.5315C71.238 39.333 59.5961 44.8467 45.2352 44.8467C30.8742 44.8467 19.2324 39.333 19.2324 32.5315C19.2324 25.7301 30.8742 20.2164 45.2352 20.2164C59.5961 20.2164 71.238 25.7301 71.238 32.5315Z"/><path fill="#4192FF" d="M71.238 31.8071C71.238 38.6086 59.5961 44.1222 45.2352 44.1222C30.8742 44.1222 19.2324 38.6086 19.2324 31.8071C19.2324 25.0057 30.8742 19.492 45.2352 19.492C59.5961 19.492 71.238 25.0057 71.238 31.8071Z"/><path fill="#4192FF" d="M71.238 31.0827C71.238 37.8841 59.5961 43.3978 45.2352 43.3978C30.8742 43.3978 19.2324 37.8841 19.2324 31.0827C19.2324 24.2812 30.8742 18.7676 45.2352 18.7676C59.5961 18.7676 71.238 24.2812 71.238 31.0827Z"/><ellipse cx="45.235" cy="30.511" fill="#fff" rx="26.003" ry="11.743"/><path fill="#0C5BC6" d="M51.1068 32.6321C51.1068 33.2552 50.709 33.7821 49.9133 34.2129C49.1318 34.636 48.0733 34.9091 46.7377 35.0322V35.6899C46.7377 35.8976 46.617 36.063 46.3754 36.1861C46.1481 36.3169 45.8426 36.3823 45.459 36.3823C45.0896 36.3823 44.7841 36.3169 44.5425 36.1861C44.301 36.063 44.1802 35.8976 44.1802 35.6899V35.0668C43.3988 35.0284 42.6386 34.9399 41.8998 34.8014C41.1752 34.6629 40.5358 34.486 39.9817 34.2706C39.7543 34.1937 39.5909 34.1091 39.4915 34.0168C39.4062 33.9168 39.3636 33.7937 39.3636 33.6475C39.3636 33.4552 39.4701 33.286 39.6833 33.1398C39.9106 32.9936 40.1664 32.9206 40.4505 32.9206C40.7205 32.9206 41.0544 32.9821 41.4522 33.1052C42.1058 33.3129 42.7239 33.4667 43.3064 33.5667C43.9032 33.6591 44.5212 33.7052 45.1606 33.7052C46.0131 33.7052 46.6667 33.6206 47.1214 33.4513C47.576 33.2744 47.8034 33.0282 47.8034 32.7128C47.8034 32.5205 47.6684 32.3628 47.3984 32.2397C47.1427 32.1167 46.823 32.0205 46.4393 31.9513C46.0557 31.882 45.5016 31.7936 44.777 31.6859C43.7256 31.5397 42.8588 31.3936 42.1768 31.2474C41.4948 31.1012 40.9052 30.8704 40.4079 30.555C39.9248 30.2396 39.6833 29.8165 39.6833 29.2857C39.6833 28.6626 40.0882 28.128 40.8981 27.6818C41.7222 27.2356 42.7949 26.951 44.1163 26.8279V26.1702C44.1163 25.9625 44.2371 25.7971 44.4786 25.674C44.7201 25.5432 45.0256 25.4779 45.395 25.4779C45.7787 25.4779 46.0841 25.5432 46.3115 25.674C46.553 25.7971 46.6738 25.9625 46.6738 26.1702V26.8049C47.9525 26.8972 49.1531 27.1587 50.2756 27.5895C50.4887 27.6664 50.6379 27.7549 50.7232 27.8549C50.8226 27.9549 50.8724 28.0741 50.8724 28.2126C50.8724 28.4049 50.7587 28.5742 50.5314 28.7203C50.3182 28.8665 50.0696 28.9396 49.7854 28.9396C49.6291 28.9396 49.4799 28.928 49.3379 28.905C49.21 28.8819 49.0253 28.8319 48.7837 28.755C48.2012 28.5549 47.6755 28.4049 47.2066 28.3049C46.7519 28.2049 46.1907 28.1549 45.5229 28.1549C44.7557 28.1549 44.1376 28.2472 43.6687 28.4319C43.2141 28.6165 42.9867 28.8627 42.9867 29.1704C42.9867 29.3858 43.1217 29.5627 43.3917 29.7012C43.6616 29.8319 44.0026 29.9358 44.4147 30.0127C44.8267 30.0896 45.4021 30.1781 46.141 30.2781C47.1782 30.4166 48.0236 30.5589 48.6772 30.7051C49.345 30.8435 49.9133 31.0705 50.3822 31.3859C50.8653 31.6936 51.1068 32.109 51.1068 32.6321Z"/></g></svg>