<svg xmlns="http://www.w3.org/2000/svg" width="36" height="36" fill="none" viewBox="0 0 36 36"><path fill="#fff" d="M23.8654 22.8167L24.565 18.3714H20.1884V15.4879C20.1884 14.2714 20.7986 13.085 22.7589 13.085H24.75V9.30036C24.75 9.30036 22.9438 9 21.2178 9C17.6117 9 15.2569 11.1296 15.2569 14.9833V18.3714H11.25V22.8167H15.2569V33.5638C16.0613 33.6869 16.8843 33.75 17.7226 33.75C18.561 33.75 19.3839 33.6869 20.1884 33.5638V22.8167H23.8654Z"/><path fill="#161514" d="M18.0001 0C8.06024 0 0 8.26271 0 18.4557C0 26.6099 5.15759 33.5279 12.3096 35.9683C13.2092 36.1391 13.5395 35.5679 13.5395 35.0805C13.5395 34.6404 13.5228 33.1865 13.515 31.6444C8.50736 32.7608 7.45068 29.4669 7.45068 29.4669C6.63187 27.3336 5.45209 26.7664 5.45209 26.7664C3.81894 25.6209 5.57519 25.6445 5.57519 25.6445C7.38272 25.7747 8.33447 27.5463 8.33447 27.5463C9.9399 30.3678 12.5454 29.5521 13.5725 29.0805C13.7341 27.8877 14.2006 27.0736 14.7154 26.6127C10.7173 26.146 6.51443 24.5635 6.51443 17.4918C6.51443 15.4768 7.21759 13.8305 8.36905 12.538C8.18216 12.0732 7.56604 10.1961 8.54342 7.65392C8.54342 7.65392 10.055 7.1579 13.4947 9.5457C14.9306 9.13678 16.4704 8.93171 18.0001 8.92468C19.5299 8.93171 21.0709 9.13678 22.5094 9.5457C25.945 7.1579 27.4545 7.65392 27.4545 7.65392C28.4343 10.1961 27.8178 12.0732 27.6309 12.538C28.7851 13.8305 29.4835 15.4768 29.4835 17.4918C29.4835 24.5803 25.2726 26.1411 21.2644 26.598C21.91 27.1707 22.4853 28.2939 22.4853 30.0157C22.4853 32.4851 22.4644 34.4726 22.4644 35.0805C22.4644 35.5716 22.7884 36.1471 23.7008 35.9658C30.849 33.5227 36 26.6072 36 18.4557C36 8.26271 27.9409 0 18.0001 0"/><path fill="#161514" d="M10.6163 29.8568C10.5729 30 10.3708 30.065 10.1673 30.0042C9.96412 29.9416 9.83113 29.7739 9.87219 29.6293C9.91444 29.4852 10.1173 29.4174 10.3223 29.4825C10.5252 29.5448 10.6585 29.7113 10.6163 29.8568"/><path fill="#161514" d="M9.27708 29.2664C9.1786 29.3769 8.96885 29.3472 8.81532 29.1965C8.65823 29.0492 8.6145 28.8401 8.71328 28.7296C8.81294 28.6189 9.02389 28.65 9.1786 28.7995C9.3345 28.9466 9.3821 29.1572 9.27708 29.2664"/><path fill="#161514" d="M8.30686 28.2497C8.19678 28.3275 8.01678 28.2545 7.90551 28.092C7.79543 27.9295 7.79543 27.7347 7.90789 27.6566C8.01946 27.5785 8.19678 27.6487 8.30954 27.81C8.41933 27.9752 8.41933 28.1701 8.30686 28.2497"/><path fill="#161514" d="M7.59835 27.1972C7.51266 27.278 7.34516 27.2405 7.2315 27.1128C7.11398 26.9854 7.09197 26.8151 7.17884 26.7331C7.26721 26.6523 7.42965 26.6901 7.54747 26.8175C7.66499 26.9464 7.6879 27.1155 7.59835 27.1972"/><path fill="#161514" d="M6.87082 26.3718C6.83125 26.4625 6.69082 26.4898 6.56289 26.4274C6.43257 26.3678 6.35938 26.2441 6.40163 26.153C6.44031 26.0595 6.58103 26.0334 6.71105 26.0961C6.84166 26.1557 6.91604 26.2807 6.87082 26.3718"/><path fill="#161514" d="M13.455 29.7294C13.4806 29.8765 13.3321 30.0275 13.12 30.0678C12.9114 30.1065 12.7183 30.0157 12.6919 29.8699C12.666 29.7192 12.8171 29.5682 13.0254 29.5291C13.2378 29.4916 13.4279 29.58 13.455 29.7294"/><path fill="#161514" d="M12.0865 29.9663C12.0916 30.117 11.919 30.242 11.7054 30.2447C11.4906 30.2496 11.3168 30.1276 11.3145 29.9794C11.3145 29.8272 11.4831 29.7034 11.698 29.6998C11.9116 29.6955 12.0865 29.8166 12.0865 29.9663"/></svg>