<svg xmlns="http://www.w3.org/2000/svg" width="36" height="36" fill="none" viewBox="0 0 36 36"><path fill="#4285F4" d="M33.7516 18.3499C33.7516 17.0549 33.6443 16.1099 33.4123 15.1299H18.323V20.9748H27.1801C27.0016 22.4274 26.0373 24.6149 23.8944 26.0848L23.8643 26.2805L28.6353 29.9025L28.9658 29.9349C32.0015 27.1873 33.7516 23.1448 33.7516 18.3499Z"/><path fill="#34A853" d="M18.322 33.75C22.6612 33.75 26.304 32.3499 28.9648 29.935L23.8933 26.0848C22.5362 27.0123 20.7148 27.6598 18.322 27.6598C14.072 27.6598 10.4649 24.9124 9.17908 21.1149L8.99061 21.1306L4.02972 24.8931L3.96484 25.0698C6.60766 30.2149 12.0362 33.75 18.322 33.75Z"/><path fill="#FBBC05" d="M9.17996 21.1151C8.84068 20.1351 8.64433 19.085 8.64433 18.0001C8.64433 16.915 8.84068 15.865 9.16211 14.8851L9.15312 14.6763L4.13005 10.8534L3.96571 10.93C2.87647 13.065 2.25146 15.4626 2.25146 18.0001C2.25146 20.5376 2.87647 22.935 3.96571 25.07L9.17996 21.1151Z"/><path fill="#EB4335" d="M18.3221 8.33996C21.3399 8.33996 23.3755 9.61745 24.5363 10.685L29.072 6.345C26.2864 3.80751 22.6613 2.25 18.3221 2.25C12.0363 2.25 6.60768 5.78497 3.96484 10.9299L9.16126 14.885C10.465 11.0875 14.0721 8.33996 18.3221 8.33996Z"/></svg>