<svg xmlns="http://www.w3.org/2000/svg" width="140" height="29" fill="none" viewBox="0 0 140 29"><path fill="#FFB422" d="M12.5979 6.22666C13.1966 4.38404 15.8034 4.38404 16.4021 6.22666L17.1942 8.66435C17.4619 9.4884 18.2298 10.0463 19.0963 10.0463H21.6594C23.5969 10.0463 24.4024 12.5256 22.835 13.6644L20.7614 15.1709C20.0604 15.6802 19.7671 16.583 20.0348 17.407L20.8269 19.8447C21.4256 21.6873 19.3166 23.2196 17.7492 22.0808L15.6756 20.5742C14.9746 20.0649 14.0254 20.0649 13.3244 20.5742L11.2508 22.0808C9.68337 23.2196 7.57441 21.6873 8.17312 19.8447L8.96517 17.407C9.23292 16.583 8.93961 15.6802 8.23863 15.1709L6.165 13.6644C4.59757 12.5255 5.40313 10.0463 7.34057 10.0463H9.90372C10.7702 10.0463 11.5381 9.4884 11.8058 8.66435L12.5979 6.22666Z"/><path fill="#FFB422" d="M68.0915 6.46391C68.6772 4.59454 71.3228 4.59454 71.9085 6.46392L72.5917 8.64429C72.853 9.47852 73.626 10.0463 74.5002 10.0463H76.8612C78.781 10.0463 79.5981 12.4884 78.0648 13.6437L76.031 15.176C75.3554 15.6851 75.0731 16.5641 75.326 17.3714L76.0731 19.7557C76.6544 21.6112 74.514 23.1212 72.961 21.9511L71.2035 20.6269C70.491 20.09 69.509 20.09 68.7965 20.6269L67.039 21.9511C65.486 23.1211 63.3456 21.6112 63.9269 19.7557L64.674 17.3714C64.9269 16.5641 64.6446 15.6851 63.969 15.176L61.9352 13.6437C60.4019 12.4884 61.219 10.0463 63.1388 10.0463H65.4998C66.374 10.0463 67.147 9.47852 67.4083 8.64429L68.0915 6.46391Z"/><path stroke="#FFC226" stroke-width="2" d="M126.451 6.53568L127.243 8.97337C127.645 10.2094 128.797 11.0463 130.096 11.0463H132.659C133.628 11.0463 134.031 12.2859 133.247 12.8553L131.174 14.3619C130.122 15.1258 129.682 16.4799 130.084 17.716L130.876 20.1537C131.175 21.075 130.121 21.8412 129.337 21.2717L127.263 19.7652C126.212 19.0012 124.788 19.0012 123.737 19.7652L121.663 21.2717C120.879 21.8411 119.825 21.075 120.124 20.1537L120.916 17.716C121.318 16.4799 120.878 15.1258 119.826 14.3619L117.753 12.8553C116.969 12.2859 117.372 11.0463 118.341 11.0463H120.904C122.203 11.0463 123.355 10.2094 123.757 8.97337L124.549 6.53567C124.848 5.61437 126.152 5.61436 126.451 6.53568Z"/><path fill="#FFB422" d="M40.5979 6.22666C41.1966 4.38404 43.8034 4.38404 44.4021 6.22666L45.1942 8.66435C45.4619 9.4884 46.2298 10.0463 47.0963 10.0463H49.6594C51.5969 10.0463 52.4024 12.5256 50.835 13.6644L48.7614 15.1709C48.0604 15.6802 47.7671 16.583 48.0348 17.407L48.8269 19.8447C49.4256 21.6873 47.3166 23.2196 45.7492 22.0808L43.6756 20.5742C42.9746 20.0649 42.0254 20.0649 41.3244 20.5742L39.2508 22.0808C37.6834 23.2196 35.5744 21.6873 36.1731 19.8447L36.9652 17.407C37.2329 16.583 36.9396 15.6802 36.2386 15.1709L34.165 13.6644C32.5976 12.5255 33.4031 10.0463 35.3406 10.0463H37.9037C38.7702 10.0463 39.5381 9.4884 39.8058 8.66435L40.5979 6.22666Z"/><path fill="#FFB422" d="M95.5979 6.22666C96.1966 4.38404 98.8034 4.38404 99.4021 6.22666L100.194 8.66435C100.462 9.4884 101.23 10.0463 102.096 10.0463H104.659C106.597 10.0463 107.402 12.5256 105.835 13.6644L103.761 15.1709C103.06 15.6802 102.767 16.583 103.035 17.407L103.827 19.8447C104.426 21.6873 102.317 23.2196 100.749 22.0808L98.6756 20.5742C97.9746 20.0649 97.0254 20.0649 96.3244 20.5742L94.2508 22.0808C92.6834 23.2196 90.5744 21.6873 91.1731 19.8447L91.9652 17.407C92.2329 16.583 91.9396 15.6802 91.2386 15.1709L89.165 13.6644C87.5976 12.5255 88.4031 10.0463 90.3406 10.0463H92.9037C93.7702 10.0463 94.5381 9.4884 94.8058 8.66435L95.5979 6.22666Z"/><mask id="mask0_214_17768" style="mask-type:alpha" width="19" height="19" x="116" y="4" maskUnits="userSpaceOnUse"><path fill="#FFB422" d="M123.588 5.8541C124.187 4.01148 126.794 4.01148 127.392 5.8541L128.186 8.29862C128.454 9.12267 129.222 9.68059 130.089 9.68059H132.659C134.596 9.68059 135.402 12.1598 133.834 13.2986L131.755 14.8094C131.054 15.3187 130.761 16.2214 131.029 17.0455L131.823 19.49C132.421 21.3326 130.313 22.8649 128.745 21.7261L126.666 20.2153C125.965 19.706 125.016 19.706 124.315 20.2153L122.235 21.7261C120.668 22.8649 118.559 21.3326 119.157 19.49L119.952 17.0455C120.219 16.2214 119.926 15.3187 119.225 14.8094L117.146 13.2986C115.578 12.1598 116.384 9.68059 118.321 9.68059H120.892C121.758 9.68059 122.526 9.12267 122.794 8.29862L123.588 5.8541Z"/></mask><g mask="url(#mask0_214_17768)"><rect width="10.988" height="25.273" x="114.227" y=".55" fill="#FFB422" rx="2"/></g></svg>