<svg xmlns="http://www.w3.org/2000/svg" width="60" height="60" fill="none" viewBox="0 0 60 60"><rect width="59" height="59" x=".499" y=".5" fill="#242331" rx="29.5"/><path fill="#fff" d="M26.1167 39.5C25.848 39.4994 25.5841 39.4119 25.3509 39.2462C24.8259 38.8766 24.4995 38.1592 24.4995 37.3804V21.6197C24.4995 20.8387 24.8259 20.1235 25.3509 19.7539C25.5897 19.5835 25.8609 19.4958 26.1362 19.5002C26.4115 19.5045 26.6809 19.6005 26.9161 19.7784L37.761 27.8414C37.9871 28.0174 38.1734 28.2618 38.3025 28.5518C38.4317 28.8417 38.4995 29.1676 38.4995 29.499C38.4995 29.8303 38.4317 30.1562 38.3025 30.4462C38.1734 30.7361 37.9871 30.9805 37.761 31.1566L26.9143 39.2217C26.6736 39.4025 26.3979 39.4987 26.1167 39.5Z"/></svg>