<svg xmlns="http://www.w3.org/2000/svg" width="1386" height="705" fill="none" viewBox="0 0 1386 705"><path fill="#F9F8FF" d="M63.4907 93.6655C36.4848 53.8246 65.0248 0 113.156 0H1386V705H658.163C545.41 705 439.991 649.103 376.727 555.771L63.4907 93.6655Z"/><path fill="url(#paint0_linear_214_21958)" d="M63.4907 93.6655C36.4848 53.8246 65.0248 0 113.156 0H1386V705H658.163C545.41 705 439.991 649.103 376.727 555.771L63.4907 93.6655Z"/><mask id="mask0_214_21958" style="mask-type:alpha" width="1333" height="705" x="53" y="0" maskUnits="userSpaceOnUse"><path fill="#F9F8FF" d="M63.4907 93.6655C36.4848 53.8246 65.0248 0 113.156 0H1386V705H658.163C545.41 705 439.991 649.102 376.727 555.771L63.4907 93.6655Z"/></mask><g mask="url(#mask0_214_21958)"><ellipse cx="349.646" cy="361.677" fill="url(#paint1_linear_214_21958)" fill-opacity=".44" rx="349.646" ry="361.677" transform="matrix(0.920144 -0.39158 0.361103 0.932526 378.678 -95.7188)" style="mix-blend-mode:multiply"/><ellipse cx="326.181" cy="289.821" fill="url(#paint2_linear_214_21958)" fill-opacity=".42" rx="326.181" ry="289.821" transform="matrix(0.244077 -0.969756 0.959148 0.282903 816.265 1053.72)" style="mix-blend-mode:multiply"/></g><defs><linearGradient id="paint0_linear_214_21958" x1="291.885" x2="1393.1" y1="0" y2="693.723" gradientUnits="userSpaceOnUse"><stop stop-color="#0C5BC6"/><stop offset="1" stop-color="#4192FF"/></linearGradient><linearGradient id="paint1_linear_214_21958" x1="349.646" x2="349.646" y1="0" y2="723.354" gradientUnits="userSpaceOnUse"><stop stop-color="#684FFF"/><stop offset="1" stop-color="#FFF8F0" stop-opacity="0"/></linearGradient><linearGradient id="paint2_linear_214_21958" x1="326.181" x2="326.181" y1="0" y2="579.642" gradientUnits="userSpaceOnUse"><stop stop-color="#684FFF"/><stop offset="1" stop-color="#FFF8F0" stop-opacity="0"/></linearGradient></defs></svg>